# xmcd
#
# Track frame offsets: 
#        150
#        14714
#        32470
#        45599
#        61208
#        84767
#        101457
#        114837
#        133628
#        149133
#        161832
#        176492
#        188402
#        201865
#        220862
#        231931
#
# Disc length: 3353 seconds
#
# Revision: 0
# Processed by: cddbd v1.5PL3 Copyright (c) Steve Scherf et al.
# Submitted via: ExactAudioCopy v0.95a5
#
DISCID=d50d1710
DTITLE=Scott Ainslie - Terraplane
DYEAR=1998
DGENRE=Blues
TTITLE0=I Got To Find My Baby
TTITLE1=Parchmans Farm Blues
TTITLE2=Chumpman Blues
TTITLE3=Terraplane Blues
TTITLE4=Death Don't Have No Mercy
TTITLE5=If I Had Possession Over Judgement Day
TTITLE6=Police Dog Blues
TTITLE7=My Baby Walks On Fire
TTITLE8=Walkin' Blues
TTITLE9=Change My Name
TTITLE10=Spike Driver Blues
TTITLE11=You Gotta Get Up
TTITLE12=Run Like Water
TTITLE13=Ramblin' On My Mind
TTITLE14=Rocks And Gravel
TTITLE15=Amazing Grace
EXTD=
EXTT0=
EXTT1=
EXTT2=
EXTT3=
EXTT4=
EXTT5=
EXTT6=
EXTT7=
EXTT8=
EXTT9=
EXTT10=
EXTT11=
EXTT12=
EXTT13=
EXTT14=
EXTT15=
PLAYORDER=
